<svg width="23" height="23" viewBox="0 0 23 23" fill="none" xmlns="http://www.w3.org/2000/svg">
<path d="M8.08791 0H18.6085C19.8944 0 20.9464 1.035 20.9464 2.3V20.7C20.9464 21.965 19.8944 23 18.6085 23H8.08791C6.80206 23 5.75 21.965 5.75 20.7V19.55C5.75 19.245 5.87316 18.9525 6.09238 18.7368C6.3116 18.5212 6.60893 18.4 6.91896 18.4C7.22898 18.4 7.52631 18.5212 7.74553 18.7368C7.96475 18.9525 8.08791 19.245 8.08791 19.55V20.7H18.6085V2.3H8.08791V3.45C8.08791 3.755 7.96475 4.04751 7.74553 4.26317C7.52631 4.47884 7.22898 4.6 6.91896 4.6C6.60893 4.6 6.3116 4.47884 6.09238 4.26317C5.87316 4.04751 5.75 3.755 5.75 3.45V2.3C5.75 1.035 6.80206 0 8.08791 0Z" fill="#1D2227"/>
<path d="M10.2844 16.4976C10.7373 16.9532 11.4689 16.9532 11.9218 16.4976L16.0885 12.3057C16.3062 12.0866 16.4285 11.7895 16.4285 11.4798C16.4285 11.17 16.3062 10.8729 16.0885 10.6538L11.9218 6.46196C11.7011 6.26124 11.4121 6.15352 11.1146 6.16108C10.8172 6.16863 10.534 6.29088 10.3236 6.50255C10.1132 6.71422 9.99166 6.99912 9.98415 7.29837C9.97664 7.59762 10.0837 7.88834 10.2832 8.11041L12.4618 10.3115H2.39341C2.08542 10.3115 1.79004 10.4346 1.57225 10.6537C1.35447 10.8727 1.23212 11.1699 1.23212 11.4798C1.23212 11.7896 1.35447 12.0868 1.57225 12.3059C1.79004 12.525 2.08542 12.648 2.39341 12.648H12.4618L10.2832 14.8491C10.0665 15.068 9.94484 15.3645 9.94506 15.6736C9.94528 15.9826 10.0673 16.2789 10.2844 16.4976Z" fill="#1D2227"/>
</svg>
