<svg width="31" height="30" viewBox="0 0 31 30" fill="none" xmlns="http://www.w3.org/2000/svg">
<g clip-path="url(#clip0_18_235)">
<path d="M29.3289 16.8641C29.4163 16.2514 29.4614 15.6335 29.464 15.0146C29.464 11.2892 27.984 7.71627 25.3497 5.08196C22.7154 2.44766 19.1425 0.967726 15.417 0.967726C14.7982 0.970304 14.1803 1.01542 13.5677 1.10273C10.1051 -0.763368 5.82836 -0.136532 3.04715 2.64491C0.265819 5.42612 -0.361017 9.70277 1.50508 13.1653C1.41777 13.778 1.37265 14.3958 1.36996 15.0146C1.36996 22.7727 7.65906 29.0617 15.417 29.0617C16.0357 29.0591 16.6538 29.014 17.2664 28.9267C20.7289 30.7928 25.0055 30.1659 27.787 27.3845C30.5682 24.6033 31.1951 20.3265 29.3289 16.8641Z" fill="white"/>
<path d="M9.32865 17.8201C14.2405 17.8201 18.2224 13.8383 18.2224 8.92642C18.2224 4.01456 14.2405 0.0327148 9.32865 0.0327148C4.41679 0.0327148 0.434937 4.01456 0.434937 8.92642C0.434937 13.8383 4.41679 17.8201 9.32865 17.8201Z" fill="url(#paint0_linear_18_235)"/>
<path d="M21.5055 29.9969C26.4173 29.9969 30.3992 26.015 30.3992 21.1032C30.3992 16.1913 26.4173 12.2095 21.5055 12.2095C16.5936 12.2095 12.6118 16.1913 12.6118 21.1032C12.6118 26.015 16.5936 29.9969 21.5055 29.9969Z" fill="url(#paint1_linear_18_235)"/>
<mask id="mask0_18_235" style="mask-type:alpha" maskUnits="userSpaceOnUse" x="0" y="0" width="31" height="30">
<path d="M21.5055 12.2095C19.9154 12.2092 18.3544 12.6362 16.9859 13.4458C19.2752 9.58568 18.3335 4.62478 14.7888 1.87193C11.2442 -0.881158 6.20478 -0.565572 3.03111 2.6081C-0.142447 5.78165 -0.458033 10.8212 2.29494 14.3658C5.04779 17.9104 10.0086 18.8522 13.869 16.5629C11.8194 20.0366 12.3639 24.4548 15.1958 27.3268C18.0277 30.1988 22.4377 30.8055 25.94 28.8049C29.4422 26.8044 31.1597 22.6973 30.1242 18.7992C29.0887 14.901 25.5597 12.1877 21.5261 12.1888L21.5055 12.2095Z" fill="url(#paint2_radial_18_235)"/>
</mask>
<g mask="url(#mask0_18_235)">
<path d="M15.1357 32.2723C24.3138 32.2723 31.7542 24.8319 31.7542 15.6537C31.7542 6.47555 24.3138 -0.964844 15.1357 -0.964844C5.95746 -0.964844 -1.48294 6.47555 -1.48294 15.6537C-1.48294 24.8319 5.95746 32.2723 15.1357 32.2723Z" fill="url(#paint3_radial_18_235)"/>
</g>
<path d="M15.417 29.0618C23.175 29.0618 29.464 22.7728 29.464 15.0148C29.464 7.25684 23.175 0.967773 15.417 0.967773C7.65903 0.967773 1.36996 7.25684 1.36996 15.0148C1.36996 22.7728 7.65903 29.0618 15.417 29.0618Z" fill="url(#paint4_linear_18_235)"/>
<path d="M15.417 29.0618C23.175 29.0618 29.464 22.7728 29.464 15.0148C29.464 7.25684 23.175 0.967773 15.417 0.967773C7.65903 0.967773 1.36996 7.25684 1.36996 15.0148C1.36996 22.7728 7.65903 29.0618 15.417 29.0618Z" fill="url(#paint5_linear_18_235)"/>
<path d="M10.2949 13.2902C9.96451 12.6707 9.79989 11.9764 9.81697 11.2746C9.79574 10.3875 10.0986 9.52316 10.6689 8.84339C11.269 8.1664 12.0354 7.65782 12.8923 7.368C13.8232 7.03952 14.8039 6.87432 15.7911 6.87968C16.4381 6.87517 17.0844 6.92381 17.7235 7.02511C18.1791 7.10148 18.6275 7.21619 19.0639 7.368C19.4602 7.50487 19.8169 7.73675 20.1029 8.04335C20.3212 8.28936 20.4397 8.60803 20.4353 8.93691C20.4433 9.10933 20.4171 9.28162 20.3583 9.44388C20.2995 9.60615 20.2091 9.75517 20.0924 9.88238C19.9836 9.99825 19.8513 10.0897 19.7044 10.1506C19.5576 10.2114 19.3994 10.2404 19.2405 10.2356C19.018 10.2321 18.7987 10.1826 18.5963 10.0902C18.1069 9.87335 17.6036 9.68935 17.0897 9.53937C16.6117 9.41434 16.1189 9.35497 15.6249 9.36288C14.9846 9.34139 14.3511 9.49971 13.7962 9.81992C13.5627 9.96183 13.3718 10.1642 13.2438 10.4056C13.1158 10.647 13.0554 10.9186 13.0689 11.1915C13.0652 11.5465 13.1993 11.8891 13.443 12.1473C13.7411 12.4548 14.0933 12.7049 14.482 12.885C14.9079 13.0927 15.521 13.3733 16.3937 13.7266L16.6638 13.8304C17.4879 14.1445 18.2782 14.5413 19.0223 15.0148C19.6152 15.3991 20.1155 15.9101 20.4872 16.511C20.8527 17.1413 21.0362 17.8606 21.0172 18.5889C21.0466 19.4812 20.7879 20.3591 20.2795 21.0929C19.7578 21.7987 19.0327 22.3281 18.2015 22.6099C17.2185 22.9604 16.1799 23.1294 15.1365 23.1085C13.7098 23.1559 12.2904 22.8862 10.9805 22.3189C10.645 22.1679 10.3496 21.9401 10.1183 21.654C9.93618 21.3843 9.84184 21.065 9.84814 20.7397C9.83675 20.5683 9.86345 20.3965 9.92632 20.2366C9.98919 20.0768 10.0867 19.9328 10.2118 19.8151C10.4715 19.5852 10.8108 19.4658 11.1572 19.4825C11.5446 19.488 11.9253 19.5841 12.2689 19.763C12.6949 19.9708 13.0273 20.1371 13.3079 20.2409C13.586 20.3584 13.8748 20.4489 14.1703 20.5111C14.5349 20.594 14.9082 20.6324 15.282 20.6254C15.9437 20.6742 16.6025 20.4984 17.1521 20.1267C17.3597 19.9677 17.5257 19.761 17.6361 19.524C17.7464 19.287 17.7978 19.0268 17.7858 18.7657C17.7958 18.3809 17.654 18.0077 17.391 17.7267C17.0522 17.3811 16.6591 17.0933 16.2274 16.8747C15.7183 16.6045 14.991 16.2825 14.0664 15.8877C13.2356 15.5568 12.4387 15.1462 11.687 14.6616C11.125 14.2878 10.6351 13.8733 10.2949 13.2902Z" fill="white"/>
</g>
<defs>
<linearGradient id="paint0_linear_18_235" x1="7.93643" y1="0.136593" x2="10.7209" y2="17.7163" gradientUnits="userSpaceOnUse">
<stop offset="0.01" stop-color="#00B7F0"/>
<stop offset="0.34" stop-color="#009DE5"/>
<stop offset="0.76" stop-color="#0082D9"/>
<stop offset="1" stop-color="#0078D4"/>
</linearGradient>
<linearGradient id="paint1_linear_18_235" x1="13.7962" y1="25.55" x2="29.2147" y2="16.6563" gradientUnits="userSpaceOnUse">
<stop stop-color="#0078D4"/>
<stop offset="0.37" stop-color="#007AD5"/>
<stop offset="0.57" stop-color="#0082D9"/>
<stop offset="0.74" stop-color="#0090DF"/>
<stop offset="0.88" stop-color="#00A3E7"/>
<stop offset="1" stop-color="#00BCF2"/>
</linearGradient>
<radialGradient id="paint2_radial_18_235" cx="0" cy="0" r="1" gradientUnits="userSpaceOnUse" gradientTransform="translate(14.9848 14.9882) scale(15.0063 14.9944)">
<stop/>
<stop offset="1" stop-opacity="0"/>
</radialGradient>
<radialGradient id="paint3_radial_18_235" cx="0" cy="0" r="1" gradientUnits="userSpaceOnUse" gradientTransform="translate(14.6501 15.6538) scale(16.6256)">
<stop/>
<stop offset="1" stop-opacity="0"/>
</radialGradient>
<linearGradient id="paint4_linear_18_235" x1="9.92067" y1="5.49766" x2="23.9677" y2="29.8308" gradientUnits="userSpaceOnUse">
<stop stop-color="#00B7F0"/>
<stop offset="1" stop-color="#007CC1"/>
</linearGradient>
<linearGradient id="paint5_linear_18_235" x1="14.191" y1="29.0099" x2="16.643" y2="1.01975" gradientUnits="userSpaceOnUse">
<stop stop-color="#0078D4"/>
<stop offset="1" stop-color="#00BCF2"/>
</linearGradient>
<clipPath id="clip0_18_235">
<rect width="30" height="30" fill="white" transform="translate(0.423096)"/>
</clipPath>
</defs>
</svg>
