<svg width="17" height="16" viewBox="0 0 17 16" fill="none" xmlns="http://www.w3.org/2000/svg">
<path d="M8.30979 0.58541C8.36966 0.401148 8.63034 0.401148 8.69021 0.58541L10.3635 5.73516C10.3902 5.81756 10.467 5.87336 10.5537 5.87336L15.9684 5.87336C16.1622 5.87336 16.2427 6.12128 16.086 6.23516L11.7054 9.41788C11.6353 9.46881 11.6059 9.55908 11.6327 9.64149L13.306 14.7912C13.3658 14.9755 13.1549 15.1287 12.9982 15.0148L8.61756 11.8321C8.54746 11.7812 8.45254 11.7812 8.38244 11.8321L4.0018 15.0148C3.84506 15.1287 3.63417 14.9755 3.69404 14.7912L5.36729 9.64149C5.39407 9.55908 5.36473 9.46881 5.29464 9.41788L0.913999 6.23516C0.757256 6.12128 0.837811 5.87336 1.03156 5.87336L6.44632 5.87336C6.53297 5.87336 6.60976 5.81756 6.63653 5.73516L8.30979 0.58541Z" fill="#1D2227"/>
</svg>
