<svg width="125" height="125" viewBox="0 0 125 125" fill="none" xmlns="http://www.w3.org/2000/svg">
<path d="M62.5 0L71.2994 6.94253L81.8136 3.05897L88.037 12.3809L99.2366 11.9364L102.275 22.7252L113.064 25.7634L112.619 36.963L121.941 43.1864L118.057 53.7006L125 62.5L118.057 71.2994L121.941 81.8136L112.619 88.037L113.064 99.2366L102.275 102.275L99.2366 113.064L88.037 112.619L81.8136 121.941L71.2994 118.057L62.5 125L53.7006 118.057L43.1864 121.941L36.963 112.619L25.7634 113.064L22.7252 102.275L11.9364 99.2366L12.3809 88.037L3.05897 81.8136L6.94253 71.2994L0 62.5L6.94253 53.7006L3.05897 43.1864L12.3809 36.963L11.9364 25.7634L22.7252 22.7252L25.7634 11.9364L36.963 12.3809L43.1864 3.05897L53.7006 6.94253L62.5 0Z" fill="#F15C13"/>
</svg>
