<svg width="26" height="25" viewBox="0 0 26 25" fill="none" xmlns="http://www.w3.org/2000/svg">
<g clip-path="url(#clip0_28_130)">
<path d="M13.0193 0C9.70483 0 6.52319 1.31777 4.1814 3.66113C1.83718 6.00542 0.519936 9.18473 0.519287 12.5C0.519287 15.8139 1.83765 18.9955 4.1814 21.3389C6.52319 23.6822 9.70483 25 13.0193 25C16.3337 25 19.5154 23.6822 21.8572 21.3389C24.2009 18.9955 25.5193 15.8139 25.5193 12.5C25.5193 9.18613 24.2009 6.00449 21.8572 3.66113C19.5154 1.31777 16.3337 0 13.0193 0Z" fill="url(#paint0_linear_28_130)"/>
<path d="M6.17748 12.368C9.82201 10.7805 12.2517 9.7338 13.4665 9.22814C16.9392 7.78419 17.6599 7.53341 18.1306 7.52492C18.2341 7.52326 18.4646 7.54884 18.615 7.67042C18.74 7.77296 18.7751 7.91163 18.7927 8.009C18.8083 8.10626 18.8298 8.32794 18.8122 8.50099C18.6247 10.4776 17.8103 15.274 17.3962 17.4879C17.2224 18.4246 16.8767 18.7387 16.5427 18.7693C15.8161 18.8361 15.2654 18.2897 14.5622 17.8289C13.4626 17.1076 12.8415 16.6588 11.7732 15.9551C10.5388 15.1418 11.3396 14.6947 12.0427 13.9643C12.2263 13.7731 15.4255 10.8639 15.4861 10.6C15.4939 10.567 15.5017 10.444 15.4275 10.3791C15.3552 10.3141 15.2478 10.3363 15.1697 10.3539C15.0583 10.3789 13.3025 11.5406 9.89623 13.8389C9.39818 14.1815 8.94701 14.3485 8.54076 14.3397C8.09545 14.3301 7.23607 14.0873 6.5974 13.8799C5.81615 13.6254 5.1931 13.4908 5.24779 13.0586C5.27513 12.8336 5.58568 12.6033 6.17748 12.368Z" fill="white"/>
</g>
<defs>
<linearGradient id="paint0_linear_28_130" x1="13.0193" y1="0" x2="13.0193" y2="25" gradientUnits="userSpaceOnUse">
<stop stop-color="#2AABEE"/>
<stop offset="1" stop-color="#229ED9"/>
</linearGradient>
<clipPath id="clip0_28_130">
<rect width="25" height="25" fill="white" transform="translate(0.519287)"/>
</clipPath>
</defs>
</svg>
