<svg width="25" height="25" viewBox="0 0 25 25" fill="none" xmlns="http://www.w3.org/2000/svg">
<g clip-path="url(#clip0_28_133)">
<path d="M0.523212 12.3504C0.522637 14.4509 1.06513 16.5018 2.09666 18.3096L0.424561 24.4861L6.67237 22.8288C8.40043 23.7805 10.3366 24.2792 12.3041 24.2794H12.3093C18.8045 24.2794 24.0917 18.9322 24.0945 12.3598C24.0958 9.175 22.871 6.18023 20.6456 3.92713C18.4207 1.67423 15.4616 0.43285 12.3088 0.431396C5.81285 0.431396 0.52599 5.7783 0.523308 12.3504" fill="url(#paint0_linear_28_133)"/>
<path d="M0.102483 12.3465C0.101812 14.5226 0.663743 16.6469 1.73205 18.5194L0 24.9173L6.47183 23.2006C8.25503 24.1842 10.2627 24.7028 12.3057 24.7036H12.311C19.0392 24.7036 24.5164 19.1641 24.5192 12.3564C24.5204 9.05717 23.2515 5.95475 20.9467 3.62093C18.6416 1.2874 15.5767 0.00135659 12.311 0C5.58157 0 0.10526 5.53876 0.102578 12.3465H0.102483ZM3.9566 18.1969L3.71495 17.8088C2.69913 16.1747 2.16296 14.2863 2.16373 12.3473C2.16593 6.68886 6.71769 2.08527 12.3148 2.08527C15.0253 2.08643 17.5726 3.15543 19.4886 5.09496C21.4044 7.03469 22.4587 9.61318 22.458 12.3556C22.4555 18.0141 17.9036 22.6182 12.311 22.6182H12.3069C10.4859 22.6173 8.69992 22.1225 7.14237 21.1875L6.77171 20.9651L2.9312 21.9838L3.9566 18.1968V18.1969Z" fill="url(#paint1_linear_28_133)"/>
<path d="M9.25967 7.18489C9.03114 6.67103 8.79064 6.66066 8.57332 6.65165C8.39536 6.6439 8.19193 6.64448 7.98869 6.64448C7.78526 6.64448 7.45473 6.7219 7.17534 7.03053C6.89567 7.33944 6.1076 8.08595 6.1076 9.60427C6.1076 11.1227 7.20072 12.59 7.35311 12.7961C7.50568 13.0018 9.46339 16.2173 12.5639 17.4544C15.1407 18.4824 15.6651 18.2779 16.2244 18.2264C16.7837 18.175 18.0292 17.48 18.2833 16.7594C18.5376 16.0389 18.5376 15.4212 18.4614 15.2922C18.3851 15.1636 18.1817 15.0863 17.8766 14.9321C17.5715 14.7777 16.0718 14.0311 15.7922 13.9281C15.5125 13.8252 15.3092 13.7738 15.1058 14.0829C14.9023 14.3914 14.3182 15.0863 14.1401 15.2922C13.9623 15.4985 13.7842 15.5241 13.4793 15.3698C13.174 15.2149 12.1916 14.8894 11.0261 13.8382C10.1193 13.0202 9.50706 12.01 9.32911 11.701C9.15115 11.3924 9.31005 11.2252 9.463 11.0714C9.60006 10.9331 9.76815 10.7111 9.92082 10.5309C10.0729 10.3507 10.1237 10.2221 10.2254 10.0163C10.3272 9.81027 10.2763 9.63004 10.2001 9.47568C10.1237 9.32132 9.53091 7.79516 9.25967 7.18498" fill="white"/>
</g>
<defs>
<linearGradient id="paint0_linear_28_133" x1="12.2595" y1="24.4861" x2="12.2595" y2="0.431396" gradientUnits="userSpaceOnUse">
<stop stop-color="#1FAF38"/>
<stop offset="1" stop-color="#60D669"/>
</linearGradient>
<linearGradient id="paint1_linear_28_133" x1="12.2596" y1="24.9173" x2="12.2596" y2="0" gradientUnits="userSpaceOnUse">
<stop stop-color="#29B540"/>
<stop offset="1" stop-color="#59D264"/>
</linearGradient>
<clipPath id="clip0_28_133">
<rect width="24.5192" height="25" fill="white"/>
</clipPath>
</defs>
</svg>
